2014001_C3_05_grf
version=1
nRows=30
nColumns=19
inDegrees=no
endheader
time	ground_force_1_vx	ground_force_1_vy	ground_force_1_vz	ground_force_1_px	ground_force_1_py	ground_force_1_pz	ground_force_1_mx	ground_force_1_my	ground_force_1_mz	ground_force_2_vx	ground_force_2_vy	ground_force_2_vz	ground_force_2_px	ground_force_2_py	ground_force_2_pz	ground_force_2_mx	ground_force_2_my	ground_force_2_mz
      0.86000000	      0.00000000	      0.00000000	      0.00000000	      0.00000000	      0.00000000	      0.00000000	      0.00000000	      0.00000000	      0.00000000	    -27.63915807	    534.76744890	    -28.09592709	      0.31670242	     -0.00200000	      0.82567104	      0.00000000	      1.24850724	      0.00000000
      0.86100000	      0.00000000	      0.00000000	      0.00000000	      0.00000000	      0.00000000	      0.00000000	      0.00000000	      0.00000000	      0.00000000	    -27.35497914	    533.60453248	    -27.86597516	      0.31678049	     -0.00200000	      0.82628393	      0.00000000	      1.23239434	      0.00000000
      0.86200000	      0.00000000	      0.00000000	      0.00000000	      0.00000000	      0.00000000	      0.00000000	      0.00000000	      0.00000000	      0.00000000	    -27.08110213	    532.46831894	    -27.64009312	      0.31686048	     -0.00200000	      0.82689876	      0.00000000	      1.21655841	      0.00000000
      0.86300000	      0.00000000	      0.00000000	      0.00000000	      0.00000000	      0.00000000	      0.00000000	      0.00000000	      0.00000000	      0.00000000	    -26.82051882	    531.36539459	    -27.41914429	      0.31694288	     -0.00200000	      0.82751583	      0.00000000	      1.20110561	      0.00000000
      0.86400000	      0.00000000	      0.00000000	      0.00000000	      0.00000000	      0.00000000	      0.00000000	      0.00000000	      0.00000000	      0.00000000	    -26.57087669	    530.28893471	    -27.20200829	      0.31702725	     -0.00200000	      0.82813456	      0.00000000	      1.18598669	      0.00000000
      0.86500000	      0.00000000	      0.00000000	      0.00000000	      0.00000000	      0.00000000	      0.00000000	      0.00000000	      0.00000000	      0.00000000	    -26.33523792	    529.24534678	    -26.98947862	      0.31711409	     -0.00200000	      0.82875517	      0.00000000	      1.17131229	      0.00000000
      0.86600000	      0.00000000	      0.00000000	      0.00000000	      0.00000000	      0.00000000	      0.00000000	      0.00000000	      0.00000000	      0.00000000	    -26.11102536	    528.22792530	    -26.78050287	      0.31720290	     -0.00200000	      0.82937715	      0.00000000	      1.15701215	      0.00000000
      0.86700000	      0.00000000	      0.00000000	      0.00000000	      0.00000000	      0.00000000	      0.00000000	      0.00000000	      0.00000000	      0.00000000	    -25.90133473	    527.24301815	    -26.57580469	      0.31729416	     -0.00200000	      0.83000064	      0.00000000	      1.14319922	      0.00000000
      0.86800000	      0.00000000	      0.00000000	      0.00000000	      0.00000000	      0.00000000	      0.00000000	      0.00000000	      0.00000000	      0.00000000	    -25.70341900	    526.28380060	    -26.37439780	      0.31738740	     -0.00200000	      0.83062522	      0.00000000	      1.12978939	      0.00000000
      0.86900000	      0.00000000	      0.00000000	      0.00000000	      0.00000000	      0.00000000	      0.00000000	      0.00000000	      0.00000000	      0.00000000	    -25.52037276	    525.35662055	    -26.17693227	      0.31748308	     -0.00200000	      0.83125093	      0.00000000	      1.11689796	      0.00000000
      0.87000000	      0.00000000	      0.00000000	      0.00000000	      0.00000000	      0.00000000	      0.00000000	      0.00000000	      0.00000000	      0.00000000	    -25.34930483	    524.45471287	    -25.98248422	      0.31758069	     -0.00200000	      0.83187744	      0.00000000	      1.10443085	      0.00000000
      0.87100000	      0.00000000	      0.00000000	      0.00000000	      0.00000000	      0.00000000	      0.00000000	      0.00000000	      0.00000000	      0.00000000	    -25.19324943	    523.58421683	    -25.79163760	      0.31768069	     -0.00200000	      0.83250473	      0.00000000	      1.09250278	      0.00000000
      0.87200000	      0.00000000	      0.00000000	      0.00000000	      0.00000000	      0.00000000	      0.00000000	      0.00000000	      0.00000000	      0.00000000	    -25.04919693	    522.73857594	    -25.60353838	      0.31778260	     -0.00200000	      0.83313252	      0.00000000	      1.08101126	      0.00000000
      0.87300000	      0.00000000	      0.00000000	      0.00000000	      0.00000000	      0.00000000	      0.00000000	      0.00000000	      0.00000000	      0.00000000	    -24.92008321	    521.92384005	    -25.41869879	      0.31788681	     -0.00200000	      0.83376074	      0.00000000	      1.07006943	      0.00000000
      0.87400000	      0.00000000	      0.00000000	      0.00000000	      0.00000000	      0.00000000	      0.00000000	      0.00000000	      0.00000000	      0.00000000	    -24.80283603	    521.13354206	    -25.23632906	      0.31799284	     -0.00200000	      0.83438914	      0.00000000	      1.05956768	      0.00000000
      0.87500000	      0.00000000	      0.00000000	      0.00000000	      0.00000000	      0.00000000	      0.00000000	      0.00000000	      0.00000000	      0.00000000	    -24.70026053	    520.37361264	    -25.05687065	      0.31810108	     -0.00200000	      0.83501758	      0.00000000	      1.04961258	      0.00000000
      0.87600000	      0.00000000	      0.00000000	      0.00000000	      0.00000000	      0.00000000	      0.00000000	      0.00000000	      0.00000000	      0.00000000	    -24.60925654	    519.63770390	    -24.87960085	      0.31821107	     -0.00200000	      0.83564591	      0.00000000	      1.04008825	      0.00000000
      0.87700000	      0.00000000	      0.00000000	      0.00000000	      0.00000000	      0.00000000	      0.00000000	      0.00000000	      0.00000000	      0.00000000	    -24.53245260	    518.93153787	    -24.70489126	      0.31832317	     -0.00200000	      0.83627390	      0.00000000	      1.03108881	      0.00000000
      0.87800000	      0.00000000	      0.00000000	      0.00000000	      0.00000000	      0.00000000	      0.00000000	      0.00000000	      0.00000000	      0.00000000	    -24.46675748	    518.24909449	    -24.53208715	      0.31843691	     -0.00200000	      0.83690145	      0.00000000	      1.02249453	      0.00000000
      0.87900000	      0.00000000	      0.00000000	      0.00000000	      0.00000000	      0.00000000	      0.00000000	      0.00000000	      0.00000000	      0.00000000	    -24.41458739	    517.59594679	    -24.36149120	      0.31855266	     -0.00200000	      0.83752827	      0.00000000	      1.01438441	      0.00000000
      0.88000000	      0.00000000	      0.00000000	      0.00000000	      0.00000000	      0.00000000	      0.00000000	      0.00000000	      0.00000000	      0.00000000	    -24.37291592	    516.96610451	    -24.19251576	      0.31866994	     -0.00200000	      0.83815434	      0.00000000	      1.00664212	      0.00000000
      0.88100000	      0.00000000	      0.00000000	      0.00000000	      0.00000000	      0.00000000	      0.00000000	      0.00000000	      0.00000000	      0.00000000	    -24.34391454	    516.36520028	    -24.02539365	      0.31878905	     -0.00200000	      0.83877928	      0.00000000	      0.99933061	      0.00000000
      0.88200000	      0.00000000	      0.00000000	      0.00000000	      0.00000000	      0.00000000	      0.00000000	      0.00000000	      0.00000000	      0.00000000	    -24.32466745	    515.78724384	    -23.85960706	      0.31890959	     -0.00200000	      0.83940313	      0.00000000	      0.99233901	      0.00000000
      0.88300000	      0.00000000	      0.00000000	      0.00000000	      0.00000000	      0.00000000	      0.00000000	      0.00000000	      0.00000000	      0.00000000	    -24.31710251	    515.23777843	    -23.69531710	      0.31903183	     -0.00200000	      0.84002546	      0.00000000	      0.98571196	      0.00000000
      0.88400000	      0.00000000	      0.00000000	      0.00000000	      0.00000000	      0.00000000	      0.00000000	      0.00000000	      0.00000000	      0.00000000	    -24.31845590	    514.71090317	    -23.53207581	      0.31915538	     -0.00200000	      0.84064642	      0.00000000	      0.97934537	      0.00000000
      0.88500000	      0.00000000	      0.00000000	      0.00000000	      0.00000000	      0.00000000	      0.00000000	      0.00000000	      0.00000000	      0.00000000	    -24.33039397	    514.21195269	    -23.36995676	      0.31928050	     -0.00200000	      0.84126547	      0.00000000	      0.97326111	      0.00000000
      0.88600000	      0.00000000	      0.00000000	      0.00000000	      0.00000000	      0.00000000	      0.00000000	      0.00000000	      0.00000000	      0.00000000	    -24.35033619	    513.73523474	    -23.20858464	      0.31940681	     -0.00200000	      0.84188285	      0.00000000	      0.96736731	      0.00000000
      0.88700000	      0.00000000	      0.00000000	      0.00000000	      0.00000000	      0.00000000	      0.00000000	      0.00000000	      0.00000000	      0.00000000	    -24.37968515	    513.28605413	    -23.04795105	      0.31953451	     -0.00200000	      0.84249795	      0.00000000	      0.96166738	      0.00000000
      0.88800000	      0.00000000	      0.00000000	      0.00000000	      0.00000000	      0.00000000	      0.00000000	      0.00000000	      0.00000000	      0.00000000	    -24.41607043	    512.85868883	    -22.88775332	      0.31966326	     -0.00200000	      0.84311108	      0.00000000	      0.95608859	      0.00000000
      0.88900000	      0.00000000	      0.00000000	      0.00000000	      0.00000000	      0.00000000	      0.00000000	      0.00000000	      0.00000000	      0.00000000	    -24.46063533	    512.45844364	    -22.72790112	      0.31979320	     -0.00200000	      0.84372156	      0.00000000	      0.95062182	      0.00000000
